# Blender v2.79 (sub 0) OBJ File: 'Cube.blend'
# www.blender.org
mtllib Cube.mtl
o Cube
v 1.000000 -1.000000 -1.000000
v 1.000000 -1.000000 1.000000
v -1.000000 -1.000000 1.000000
v -1.000000 -1.000000 -1.000000
v 1.000000 1.000000 -0.999999
v 0.999999 1.000000 1.000001
v -1.000000 1.000000 1.000000
v -1.000000 1.000000 -1.000000
vt 0.234467 0.391186
vt 0.467800 0.391186
vt 0.467800 0.624520
vt 0.234467 0.624520
vt 0.934508 0.391110
vt 0.934508 0.624443
vt 0.701174 0.624443
vt 0.701174 0.391110
vt 0.467801 0.391178
vt 0.234467 0.391178
vt 0.234467 0.157845
vt 0.467801 0.157845
vt 0.001130 0.624513
vt 0.001130 0.391180
vt 0.234463 0.391179
vt 0.234463 0.624513
vt 0.467800 0.857846
vt 0.234466 0.857846
vt 0.234466 0.624513
vt 0.467800 0.624513
vt 0.467840 0.391110
vt 0.701174 0.391110
vt 0.701174 0.624443
vt 0.467840 0.624444
vn 0.0000 -1.0000 0.0000
vn 0.0000 1.0000 0.0000
vn 1.0000 0.0000 0.0000
vn -0.0000 -0.0000 1.0000
vn -1.0000 -0.0000 -0.0000
vn 0.0000 0.0000 -1.0000
usemtl Material
s off
f 1/1/1 2/2/1 3/3/1 4/4/1
f 5/5/2 8/6/2 7/7/2 6/8/2
f 1/9/3 5/10/3 6/11/3 2/12/3
f 2/13/4 6/14/4 7/15/4 3/16/4
f 3/17/5 7/18/5 8/19/5 4/20/5
f 5/21/6 1/22/6 4/23/6 8/24/6
