# Blender v2.79 (sub 0) OBJ File: ''
# www.blender.org
mtllib Explosion.mtl
o Sphere
v 0.000000 -0.000000 -1.000000
v -0.000000 0.400000 -0.000000
v 0.270598 0.369552 -0.270598
v 0.500000 0.282843 -0.500000
v 0.653281 0.153073 -0.653282
v 0.707107 -0.000000 -0.707107
v 0.653281 -0.153073 -0.653282
v 0.500000 -0.282843 -0.500000
v 0.270598 -0.369552 -0.270598
v 0.382683 0.369552 -0.000000
v 0.707107 0.282843 -0.000000
v 0.923879 0.153073 -0.000000
v 1.000000 -0.000000 -0.000000
v 0.923879 -0.153073 -0.000000
v 0.707107 -0.282843 -0.000000
v 0.382683 -0.369552 -0.000000
v 0.000000 -0.400000 -0.000000
v 0.270598 0.369552 0.270598
v 0.500000 0.282843 0.500000
v 0.653281 0.153073 0.653281
v 0.707107 -0.000000 0.707106
v 0.653281 -0.153073 0.653281
v 0.500000 -0.282843 0.500000
v 0.270598 -0.369552 0.270598
v 0.000000 0.369552 0.382683
v 0.000000 0.282843 0.707106
v 0.000000 0.153073 0.923879
v 0.000000 -0.000000 1.000000
v 0.000000 -0.153073 0.923879
v 0.000000 -0.282843 0.707106
v 0.000000 -0.369552 0.382683
v -0.270598 0.369552 0.270598
v -0.500000 0.282843 0.500000
v -0.653281 0.153073 0.653281
v -0.707107 -0.000000 0.707106
v -0.653281 -0.153073 0.653281
v -0.500000 -0.282843 0.500000
v -0.270598 -0.369552 0.270598
v -0.382683 0.369552 -0.000000
v -0.707107 0.282843 -0.000000
v -0.923879 0.153073 -0.000000
v -1.000000 -0.000000 -0.000000
v -0.923879 -0.153073 -0.000000
v -0.707107 -0.282843 -0.000000
v -0.382683 -0.369552 -0.000000
v -0.270598 0.369552 -0.270598
v -0.500000 0.282843 -0.500000
v -0.653281 0.153073 -0.653281
v -0.707107 -0.000000 -0.707107
v -0.653281 -0.153073 -0.653281
v -0.500000 -0.282843 -0.500000
v -0.270598 -0.369552 -0.270598
v -0.000000 0.369552 -0.382683
v -0.000000 0.282843 -0.707107
v -0.000000 0.153073 -0.923879
v -0.000000 -0.153073 -0.923879
v -0.000000 -0.282843 -0.707107
v -0.000000 -0.369552 -0.382683
vt 0.500000 0.500000
vt 0.500000 0.312688
vt 0.367550 0.367551
vt 0.500000 0.153893
vt 0.500000 0.047789
vt 0.180239 0.180239
vt 0.255265 0.255266
vt 0.500000 0.010530
vt 0.500000 0.047789
vt 0.180239 0.180239
vt 0.153893 0.153893
vt 0.500000 0.153893
vt 0.500000 0.312688
vt 0.367551 0.367551
vt 0.255265 0.255266
vt 0.500000 0.500000
vt 0.312688 0.500000
vt 0.153893 0.500000
vt 0.153893 0.500000
vt 0.312688 0.500000
vt 0.010530 0.500000
vt 0.047789 0.500000
vt 0.047789 0.500000
vt 0.255265 0.744735
vt 0.367551 0.632450
vt 0.153893 0.846107
vt 0.180239 0.819762
vt 0.255265 0.744735
vt 0.180239 0.819762
vt 0.367551 0.632450
vt 0.500000 0.687312
vt 0.500000 0.687312
vt 0.500000 0.952211
vt 0.500000 0.846107
vt 0.500000 0.952211
vt 0.500000 0.989470
vt 0.500000 0.846107
vt 0.819761 0.819762
vt 0.744735 0.744735
vt 0.819761 0.819762
vt 0.846107 0.846107
vt 0.632449 0.632450
vt 0.744735 0.744735
vt 0.632449 0.632450
vt 0.846107 0.500000
vt 0.687312 0.500000
vt 0.989469 0.500000
vt 0.952211 0.500000
vt 0.846107 0.500000
vt 0.952211 0.500000
vt 0.687312 0.500000
vt 0.846107 0.153893
vt 0.819761 0.180239
vt 0.744735 0.255266
vt 0.819761 0.180239
vt 0.632449 0.367551
vt 0.632449 0.367551
vt 0.744735 0.255266
vn 0.0328 -0.9963 -0.0793
vn 0.2081 -0.8392 -0.5024
vn 0.3477 0.4175 -0.8395
vn 0.1063 0.9606 -0.2567
vn 0.1063 -0.9606 -0.2567
vn 0.3477 -0.4175 -0.8395
vn 0.2081 0.8392 -0.5024
vn 0.0328 0.9963 -0.0793
vn 0.2567 0.9606 -0.1063
vn 0.2567 -0.9606 -0.1063
vn 0.8395 -0.4175 -0.3477
vn 0.5024 0.8392 -0.2081
vn 0.0793 0.9963 -0.0328
vn 0.0793 -0.9963 -0.0328
vn 0.5024 -0.8392 -0.2081
vn 0.8395 0.4175 -0.3477
vn 0.2567 -0.9606 0.1063
vn 0.8395 -0.4175 0.3477
vn 0.5024 0.8392 0.2081
vn 0.0793 0.9963 0.0328
vn 0.0793 -0.9963 0.0328
vn 0.5024 -0.8392 0.2081
vn 0.8395 0.4175 0.3477
vn 0.2567 0.9606 0.1063
vn 0.0328 0.9963 0.0793
vn 0.0328 -0.9963 0.0793
vn 0.2081 -0.8392 0.5024
vn 0.3477 0.4175 0.8395
vn 0.1063 0.9606 0.2567
vn 0.1063 -0.9606 0.2567
vn 0.3477 -0.4175 0.8395
vn 0.2081 0.8392 0.5024
vn -0.2081 -0.8392 0.5024
vn -0.3477 0.4175 0.8395
vn -0.1063 0.9606 0.2567
vn -0.1063 -0.9606 0.2567
vn -0.3477 -0.4175 0.8395
vn -0.2081 0.8392 0.5024
vn -0.0328 0.9963 0.0793
vn -0.0328 -0.9963 0.0793
vn -0.2567 -0.9606 0.1063
vn -0.8395 -0.4175 0.3477
vn -0.5024 0.8392 0.2081
vn -0.0793 0.9963 0.0328
vn -0.0793 -0.9963 0.0328
vn -0.5024 -0.8392 0.2081
vn -0.8395 0.4175 0.3477
vn -0.2567 0.9606 0.1063
vn -0.8395 -0.4175 -0.3477
vn -0.5024 0.8392 -0.2081
vn -0.0793 0.9963 -0.0328
vn -0.0793 -0.9963 -0.0328
vn -0.5024 -0.8392 -0.2081
vn -0.8395 0.4175 -0.3477
vn -0.2567 0.9606 -0.1063
vn -0.2567 -0.9606 -0.1063
vn -0.0328 -0.9963 -0.0793
vn -0.2081 -0.8392 -0.5024
vn -0.3477 0.4175 -0.8395
vn -0.1063 0.9606 -0.2567
vn -0.1063 -0.9606 -0.2567
vn -0.3477 -0.4175 -0.8395
vn -0.2081 0.8392 -0.5024
vn -0.0328 0.9963 -0.0793
usemtl Material.001
s off
f 17/1/1 58/2/1 9/3/1
f 57/4/2 56/5/2 7/6/2 8/7/2
f 1/8/3 55/9/3 5/10/3 6/11/3
f 54/12/4 53/13/4 3/14/4 4/15/4
f 58/2/5 57/4/5 8/7/5 9/3/5
f 56/5/6 1/8/6 6/11/6 7/6/6
f 55/9/7 54/12/7 4/15/7 5/10/7
f 53/13/8 2/16/8 3/14/8
f 4/15/9 3/14/9 10/17/9 11/18/9
f 9/3/10 8/7/10 15/19/10 16/20/10
f 7/6/11 6/11/11 13/21/11 14/22/11
f 5/10/12 4/15/12 11/18/12 12/23/12
f 3/14/13 2/16/13 10/17/13
f 17/1/14 9/3/14 16/20/14
f 8/7/15 7/6/15 14/22/15 15/19/15
f 6/11/16 5/10/16 12/23/16 13/21/16
f 16/20/17 15/19/17 23/24/17 24/25/17
f 14/22/18 13/21/18 21/26/18 22/27/18
f 12/23/19 11/18/19 19/28/19 20/29/19
f 10/17/20 2/16/20 18/30/20
f 17/1/21 16/20/21 24/25/21
f 15/19/22 14/22/22 22/27/22 23/24/22
f 13/21/23 12/23/23 20/29/23 21/26/23
f 11/18/24 10/17/24 18/30/24 19/28/24
f 18/30/25 2/16/25 25/31/25
f 17/1/26 24/25/26 31/32/26
f 23/24/27 22/27/27 29/33/27 30/34/27
f 21/26/28 20/29/28 27/35/28 28/36/28
f 19/28/29 18/30/29 25/31/29 26/37/29
f 24/25/30 23/24/30 30/34/30 31/32/30
f 22/27/31 21/26/31 28/36/31 29/33/31
f 20/29/32 19/28/32 26/37/32 27/35/32
f 30/34/33 29/33/33 36/38/33 37/39/33
f 28/36/34 27/35/34 34/40/34 35/41/34
f 26/37/35 25/31/35 32/42/35 33/43/35
f 31/32/36 30/34/36 37/39/36 38/44/36
f 29/33/37 28/36/37 35/41/37 36/38/37
f 27/35/38 26/37/38 33/43/38 34/40/38
f 25/31/39 2/16/39 32/42/39
f 17/1/40 31/32/40 38/44/40
f 38/44/41 37/39/41 44/45/41 45/46/41
f 36/38/42 35/41/42 42/47/42 43/48/42
f 34/40/43 33/43/43 40/49/43 41/50/43
f 32/42/44 2/16/44 39/51/44
f 17/1/45 38/44/45 45/46/45
f 37/39/46 36/38/46 43/48/46 44/45/46
f 35/41/47 34/40/47 41/50/47 42/47/47
f 33/43/48 32/42/48 39/51/48 40/49/48
f 43/48/49 42/47/49 49/52/49 50/53/49
f 41/50/50 40/49/50 47/54/50 48/55/50
f 39/51/51 2/16/51 46/56/51
f 17/1/52 45/46/52 52/57/52
f 44/45/53 43/48/53 50/53/53 51/58/53
f 42/47/54 41/50/54 48/55/54 49/52/54
f 40/49/55 39/51/55 46/56/55 47/54/55
f 45/46/56 44/45/56 51/58/56 52/57/56
f 17/1/57 52/57/57 58/2/57
f 51/58/58 50/53/58 56/5/58 57/4/58
f 49/52/59 48/55/59 55/9/59 1/8/59
f 47/54/60 46/56/60 53/13/60 54/12/60
f 52/57/61 51/58/61 57/4/61 58/2/61
f 50/53/62 49/52/62 1/8/62 56/5/62
f 48/55/63 47/54/63 54/12/63 55/9/63
f 46/56/64 2/16/64 53/13/64
